<svg xmlns="http://www.w3.org/2000/svg" viewBox="0 0 64 64" fill="none">
  <defs>
    <linearGradient id="top" x1="6" y1="4" x2="58" y2="34" gradientUnits="userSpaceOnUse">
      <stop offset="0%" stop-color="#bef264"/>
      <stop offset="100%" stop-color="#22c55e"/>
    </linearGradient>
    <linearGradient id="right" x1="32" y1="34" x2="58" y2="58" gradientUnits="userSpaceOnUse">
      <stop offset="0%" stop-color="#16a34a"/>
      <stop offset="100%" stop-color="#14532d"/>
    </linearGradient>
    <linearGradient id="left" x1="6" y1="19" x2="32" y2="58" gradientUnits="userSpaceOnUse">
      <stop offset="0%" stop-color="#15803d"/>
      <stop offset="100%" stop-color="#0c3a1e"/>
    </linearGradient>
    <filter id="shadow" x="-20%" y="-20%" width="140%" height="140%">
      <feGaussianBlur stdDeviation="1.5"/>
    </filter>
  </defs>
  <ellipse cx="32" cy="60" rx="22" ry="2.5" fill="#22c55e" opacity="0.35" filter="url(#shadow)"/>
  <path d="M6 19 L32 34 L32 58 L6 43 Z" fill="url(#left)"/>
  <path d="M58 19 L58 43 L32 58 L32 34 Z" fill="url(#right)"/>
  <path d="M32 4 L58 19 L32 34 L6 19 Z" fill="url(#top)"/>
  <path d="M32 10 L48 19.5 L38 25 L22 16 Z" fill="#ffffff" opacity="0.28"/>
  <path d="M32 4 L58 19 M32 4 L6 19" stroke="#d9f99d" stroke-width="0.6" opacity="0.7"/>
</svg>
